<mxfile host="app.diagrams.net" modified="2020-04-01T01:27:35.395Z" agent="5.0 (X11; Linux x86_64) AppleWebKit/537.36 (KHTML, like Gecko) Chrome/80.0.3987.149 Safari/537.36" etag="90BNm7WLEof81tNT9hZm" version="12.9.6" type="github">
  <diagram id="nytK47nCUXCRf1Z7fBuW" name="Page-1">
    <mxGraphModel dx="982" dy="621" grid="1" gridSize="10" guides="1" tooltips="1" connect="1" arrows="1" fold="1" page="1" pageScale="1" pageWidth="827" pageHeight="1169" math="0" shadow="0">
      <root>
        <mxCell id="0" />
        <mxCell id="1" parent="0" />
        <mxCell id="_XpDlIiJJvxmmyCioq0G-5" value="Init" style="swimlane;fontStyle=1;align=center;verticalAlign=top;childLayout=stackLayout;horizontal=1;startSize=26;horizontalStack=0;resizeParent=1;resizeParentMax=0;resizeLast=0;collapsible=1;marginBottom=0;" parent="1" vertex="1">
          <mxGeometry x="70" y="520" width="160" height="160" as="geometry" />
        </mxCell>
        <mxCell id="_XpDlIiJJvxmmyCioq0G-6" value="mesh&#xa;field_local&#xa;number_of_phi" style="text;strokeColor=none;fillColor=none;align=left;verticalAlign=top;spacingLeft=4;spacingRight=4;overflow=hidden;rotatable=0;points=[[0,0.5],[1,0.5]];portConstraint=eastwest;" parent="_XpDlIiJJvxmmyCioq0G-5" vertex="1">
          <mxGeometry y="26" width="160" height="54" as="geometry" />
        </mxCell>
        <mxCell id="_XpDlIiJJvxmmyCioq0G-7" value="" style="line;strokeWidth=1;fillColor=none;align=left;verticalAlign=middle;spacingTop=-1;spacingLeft=3;spacingRight=3;rotatable=0;labelPosition=right;points=[];portConstraint=eastwest;" parent="_XpDlIiJJvxmmyCioq0G-5" vertex="1">
          <mxGeometry y="80" width="160" height="10" as="geometry" />
        </mxCell>
        <mxCell id="_XpDlIiJJvxmmyCioq0G-8" value="__get_length_of_phi()&#xa;init_phi()&#xa;init_gradient()&#xa;get_init_value_of_phi()" style="text;strokeColor=none;fillColor=none;align=left;verticalAlign=top;spacingLeft=4;spacingRight=4;overflow=hidden;rotatable=0;points=[[0,0.5],[1,0.5]];portConstraint=eastwest;" parent="_XpDlIiJJvxmmyCioq0G-5" vertex="1">
          <mxGeometry y="90" width="160" height="70" as="geometry" />
        </mxCell>
        <mxCell id="eQ8ba8xA6cri8hReXWed-13" value="Interpolate" style="swimlane;fontStyle=1;align=center;verticalAlign=top;childLayout=stackLayout;horizontal=1;startSize=26;horizontalStack=0;resizeParent=1;resizeParentMax=0;resizeLast=0;collapsible=1;marginBottom=0;" vertex="1" parent="1">
          <mxGeometry x="550" y="80" width="230" height="130" as="geometry" />
        </mxCell>
        <mxCell id="eQ8ba8xA6cri8hReXWed-14" value="mesh" style="text;strokeColor=none;fillColor=none;align=left;verticalAlign=top;spacingLeft=4;spacingRight=4;overflow=hidden;rotatable=0;points=[[0,0.5],[1,0.5]];portConstraint=eastwest;" vertex="1" parent="eQ8ba8xA6cri8hReXWed-13">
          <mxGeometry y="26" width="230" height="24" as="geometry" />
        </mxCell>
        <mxCell id="eQ8ba8xA6cri8hReXWed-15" value="" style="line;strokeWidth=1;fillColor=none;align=left;verticalAlign=middle;spacingTop=-1;spacingLeft=3;spacingRight=3;rotatable=0;labelPosition=right;points=[];portConstraint=eastwest;" vertex="1" parent="eQ8ba8xA6cri8hReXWed-13">
          <mxGeometry y="50" width="230" height="10" as="geometry" />
        </mxCell>
        <mxCell id="eQ8ba8xA6cri8hReXWed-16" value="elements_to_nodes()&#xa;nodes_to_faces()&#xa;elements_to_interior_faces_for_grad()&#xa;elements_to_faces()&#xa;" style="text;strokeColor=none;fillColor=none;align=left;verticalAlign=top;spacingLeft=4;spacingRight=4;overflow=hidden;rotatable=0;points=[[0,0.5],[1,0.5]];portConstraint=eastwest;" vertex="1" parent="eQ8ba8xA6cri8hReXWed-13">
          <mxGeometry y="60" width="230" height="70" as="geometry" />
        </mxCell>
        <mxCell id="eQ8ba8xA6cri8hReXWed-1" value="Update" style="swimlane;fontStyle=1;align=center;verticalAlign=top;childLayout=stackLayout;horizontal=1;startSize=26;horizontalStack=0;resizeParent=1;resizeParentMax=0;resizeLast=0;collapsible=1;marginBottom=0;" vertex="1" parent="1">
          <mxGeometry x="310" y="500" width="190" height="470" as="geometry" />
        </mxCell>
        <mxCell id="eQ8ba8xA6cri8hReXWed-2" value="mesh&#xa;field_local&#xa;number_of_phi" style="text;strokeColor=none;fillColor=none;align=left;verticalAlign=top;spacingLeft=4;spacingRight=4;overflow=hidden;rotatable=0;points=[[0,0.5],[1,0.5]];portConstraint=eastwest;" vertex="1" parent="eQ8ba8xA6cri8hReXWed-1">
          <mxGeometry y="26" width="190" height="54" as="geometry" />
        </mxCell>
        <mxCell id="eQ8ba8xA6cri8hReXWed-3" value="" style="line;strokeWidth=1;fillColor=none;align=left;verticalAlign=middle;spacingTop=-1;spacingLeft=3;spacingRight=3;rotatable=0;labelPosition=right;points=[];portConstraint=eastwest;" vertex="1" parent="eQ8ba8xA6cri8hReXWed-1">
          <mxGeometry y="80" width="190" height="10" as="geometry" />
        </mxCell>
        <mxCell id="eQ8ba8xA6cri8hReXWed-4" value="update_phi()&#xa;__get_update_value_of_phi()&#xa;__get_length_of_phi()&#xa;update_gradient()&#xa;__update_gradient_at_wall_bc()&#xa;__update_gradient_at_inlet_bc()&#xa;__update_gradient_at_outlet_bc()&#xa;__update_gradient_at_symmetry_bc()&#xa;update_boundaries()&#xa;__update_wall_specified_value()&#xa;__update_wall_specified_flux()&#xa;__update_wall_zero_flux()&#xa;__update_wall_hybrid()&#xa;__update_wall_no_slip()&#xa;__update_wall_slip()&#xa;__update_patch_specified_value()&#xa;__update_patch_specified_flux()&#xa;__update_patch_zero_flux()&#xa;__update_patch_outlet()&#xa;__update_inlet_specified_value()&#xa;__update_inlet_inlet()&#xa;__update_outlet_specified_value()&#xa;__update_outlet_outlet()&#xa;__update_outlet_zero_flux()&#xa;__update_symmetry()&#xa;__update_empty()&#xa;" style="text;strokeColor=none;fillColor=none;align=left;verticalAlign=top;spacingLeft=4;spacingRight=4;overflow=hidden;rotatable=0;points=[[0,0.5],[1,0.5]];portConstraint=eastwest;" vertex="1" parent="eQ8ba8xA6cri8hReXWed-1">
          <mxGeometry y="90" width="190" height="380" as="geometry" />
        </mxCell>
        <mxCell id="eQ8ba8xA6cri8hReXWed-5" value="Error" style="swimlane;fontStyle=1;align=center;verticalAlign=top;childLayout=stackLayout;horizontal=1;startSize=26;horizontalStack=0;resizeParent=1;resizeParentMax=0;resizeLast=0;collapsible=1;marginBottom=0;" vertex="1" parent="1">
          <mxGeometry x="70" y="80" width="160" height="120" as="geometry" />
        </mxCell>
        <mxCell id="eQ8ba8xA6cri8hReXWed-6" value="info&#xa;file&#xa;__error_info()" style="text;strokeColor=none;fillColor=none;align=left;verticalAlign=top;spacingLeft=4;spacingRight=4;overflow=hidden;rotatable=0;points=[[0,0.5],[1,0.5]];portConstraint=eastwest;" vertex="1" parent="eQ8ba8xA6cri8hReXWed-5">
          <mxGeometry y="26" width="160" height="54" as="geometry" />
        </mxCell>
        <mxCell id="eQ8ba8xA6cri8hReXWed-7" value="" style="line;strokeWidth=1;fillColor=none;align=left;verticalAlign=middle;spacingTop=-1;spacingLeft=3;spacingRight=3;rotatable=0;labelPosition=right;points=[];portConstraint=eastwest;" vertex="1" parent="eQ8ba8xA6cri8hReXWed-5">
          <mxGeometry y="80" width="160" height="10" as="geometry" />
        </mxCell>
        <mxCell id="eQ8ba8xA6cri8hReXWed-8" value="__error_info()" style="text;strokeColor=none;fillColor=none;align=left;verticalAlign=top;spacingLeft=4;spacingRight=4;overflow=hidden;rotatable=0;points=[[0,0.5],[1,0.5]];portConstraint=eastwest;" vertex="1" parent="eQ8ba8xA6cri8hReXWed-5">
          <mxGeometry y="90" width="160" height="30" as="geometry" />
        </mxCell>
        <mxCell id="eQ8ba8xA6cri8hReXWed-25" style="edgeStyle=orthogonalEdgeStyle;rounded=0;orthogonalLoop=1;jettySize=auto;html=1;exitX=1;exitY=0.5;exitDx=0;exitDy=0;" edge="1" parent="1" source="eQ8ba8xA6cri8hReXWed-8" target="eQ8ba8xA6cri8hReXWed-1">
          <mxGeometry relative="1" as="geometry" />
        </mxCell>
        <mxCell id="eQ8ba8xA6cri8hReXWed-9" value="Gradient" style="swimlane;fontStyle=1;align=center;verticalAlign=top;childLayout=stackLayout;horizontal=1;startSize=26;horizontalStack=0;resizeParent=1;resizeParentMax=0;resizeLast=0;collapsible=1;marginBottom=0;" vertex="1" parent="1">
          <mxGeometry x="560" y="290" width="210" height="140" as="geometry" />
        </mxCell>
        <mxCell id="eQ8ba8xA6cri8hReXWed-10" value="mesh" style="text;strokeColor=none;fillColor=none;align=left;verticalAlign=top;spacingLeft=4;spacingRight=4;overflow=hidden;rotatable=0;points=[[0,0.5],[1,0.5]];portConstraint=eastwest;" vertex="1" parent="eQ8ba8xA6cri8hReXWed-9">
          <mxGeometry y="26" width="210" height="24" as="geometry" />
        </mxCell>
        <mxCell id="eQ8ba8xA6cri8hReXWed-11" value="" style="line;strokeWidth=1;fillColor=none;align=left;verticalAlign=middle;spacingTop=-1;spacingLeft=3;spacingRight=3;rotatable=0;labelPosition=right;points=[];portConstraint=eastwest;" vertex="1" parent="eQ8ba8xA6cri8hReXWed-9">
          <mxGeometry y="50" width="210" height="10" as="geometry" />
        </mxCell>
        <mxCell id="eQ8ba8xA6cri8hReXWed-12" value="compute_gradient()&#xa;__compute_gradient_gauss()&#xa;__compute_gradient_nodal()&#xa;__compute_gradient_least_square2()&#xa;__compute_gradient_least_square0()&#xa;" style="text;strokeColor=none;fillColor=none;align=left;verticalAlign=top;spacingLeft=4;spacingRight=4;overflow=hidden;rotatable=0;points=[[0,0.5],[1,0.5]];portConstraint=eastwest;" vertex="1" parent="eQ8ba8xA6cri8hReXWed-9">
          <mxGeometry y="60" width="210" height="80" as="geometry" />
        </mxCell>
        <mxCell id="eQ8ba8xA6cri8hReXWed-27" style="edgeStyle=orthogonalEdgeStyle;curved=1;rounded=0;orthogonalLoop=1;jettySize=auto;html=1;exitX=1;exitY=0.5;exitDx=0;exitDy=0;entryX=1;entryY=0.5;entryDx=0;entryDy=0;" edge="1" parent="1" source="eQ8ba8xA6cri8hReXWed-16" target="eQ8ba8xA6cri8hReXWed-10">
          <mxGeometry relative="1" as="geometry" />
        </mxCell>
        <mxCell id="eQ8ba8xA6cri8hReXWed-28" style="edgeStyle=orthogonalEdgeStyle;rounded=0;orthogonalLoop=1;jettySize=auto;html=1;exitX=0;exitY=0.5;exitDx=0;exitDy=0;entryX=0.75;entryY=0;entryDx=0;entryDy=0;" edge="1" parent="1" source="eQ8ba8xA6cri8hReXWed-12" target="eQ8ba8xA6cri8hReXWed-1">
          <mxGeometry relative="1" as="geometry" />
        </mxCell>
        <mxCell id="eQ8ba8xA6cri8hReXWed-30" style="edgeStyle=orthogonalEdgeStyle;rounded=0;orthogonalLoop=1;jettySize=auto;html=1;exitX=0;exitY=0.5;exitDx=0;exitDy=0;entryX=0;entryY=0.5;entryDx=0;entryDy=0;" edge="1" parent="1" source="eQ8ba8xA6cri8hReXWed-8" target="_XpDlIiJJvxmmyCioq0G-6">
          <mxGeometry relative="1" as="geometry" />
        </mxCell>
      </root>
    </mxGraphModel>
  </diagram>
</mxfile>
